Coordinates
version=1
nRows=7
nColumns=46
inDegrees=yes

Units are S.I. units (second, meters, Newtons, ...)
Angles are in degrees.

endheader
time	pelvis_tilt	pelvis_list	pelvis_rotation	pelvis_tx	pelvis_ty	pelvis_tz	bb_angle	bb_tx	bb_ty	bb_tz	hip_flexion_r	hip_adduction_r	hip_rotation_r	knee_angle_r	knee_angle_r_beta	ankle_angle_r	subtalar_angle_r	mtp_angle_r	crank_angle_r	hip_flexion_l	hip_adduction_l	hip_rotation_l	knee_angle_l	knee_angle_l_beta	ankle_angle_l	subtalar_angle_l	mtp_angle_l	crank_angle_l	lumbar_extension	lumbar_bending	lumbar_rotation	arm_flex_r	arm_add_r	arm_rot_r	elbow_flex_r	pro_sup_r	wrist_flex_r	wrist_dev_r	arm_flex_l	arm_add_l	arm_rot_l	elbow_flex_l	pro_sup_l	wrist_flex_l	wrist_dev_l
      0.00000000	    -30.29888516	     33.97974274	      1.63658545	      0.09877013	      1.02115997	     -0.21069862	      0.00000000	      0.50000000	      0.00000000	      0.25000000	    119.97534507	      7.45827818	     38.50315916	    108.65709564	      1.89642407	     24.40414276	      9.17008164	      0.00000000	      0.00000000	     63.23777174	      2.34049571	    -39.88614182	     72.40747860	      1.26374890	     23.30271596	     16.49724088	      0.00000000	      0.00000000	    -35.29805625	    -36.51151898	    -20.30982193	     88.83737631	      3.10049984	     32.39529616	     15.70469378	     23.15184470	      0.00000000	      0.00000000	     89.76760212	     -7.02959656	     48.94204758	     24.90383804	     19.95754743	      0.00000000	      0.00000000
      0.00500000	    -30.29856318	     33.97213440	      1.64962270	      0.09880000	      1.02116200	     -0.21067681	      0.00000000	      0.50000000	      0.00000000	      0.25000000	    119.97531118	      7.44287757	     38.49481192	    108.66481836	      1.89655886	     24.40721281	      9.16724979	      0.00000000	      0.00000000	     63.22750882	      2.33774245	    -39.88745184	     72.40981141	      1.26378962	     23.30392153	     16.49643813	      0.00000000	      0.00000000	    -35.29844260	    -36.51060185	    -20.29135745	     88.83567432	      3.10832170	     32.39628185	     15.70560589	     23.15341680	      0.00000000	      0.00000000	     89.76527406	     -7.03574839	     48.93221107	     24.92197640	     19.95984252	      0.00000000	      0.00000000
      0.01000000	    -30.29852177	     33.96808928	      1.65135525	      0.09879610	      1.02116012	     -0.21068574	      0.00000000	      0.50000000	      0.00000000	      0.25000000	    119.97530737	      7.43891814	     38.49208557	    108.66660075	      1.89658997	     24.41098172	      9.16528165	      0.00000000	      0.00000000	     63.22918617	      2.33310540	    -39.88714503	     72.41305695	      1.26384627	     23.30282109	     16.49763787	      0.00000000	      0.00000000	    -35.29726335	    -36.50260126	    -20.28528643	     88.83453060	      3.11070933	     32.39634334	     15.70486802	     23.15462632	      0.00000000	      0.00000000	     89.76577623	     -7.03886896	     48.92325251	     24.93997195	     19.96215097	      0.00000000	      0.00000000
      0.01500000	    -30.27653133	     34.04341680	      1.55627454	      0.09884376	      1.02093866	     -0.21042597	      0.00000000	      0.50000000	      0.00000000	      0.25000000	    119.97539781	      7.57900504	     38.54050443	    108.69093832	      1.89701474	     24.40114196	      9.15667271	      0.00000000	      0.00000000	     63.26145364	      2.41288401	    -39.88170053	     72.38798426	      1.26340866	     23.28626397	     16.51450129	      0.00000000	      0.00000000	    -35.29125372	    -36.56211001	    -20.24780317	     88.84687821	      3.12905891	     32.39882046	     15.71436161	     23.15830265	      0.00000000	      0.00000000	     89.76922498	     -7.06973091	     48.90962552	     24.94905246	     19.96259896	      0.00000000	      0.00000000
      0.02000000	    -30.32473000	     34.01638522	      1.64739631	      0.09866829	      1.02115088	     -0.21077746	      0.00000000	      0.50000000	      0.00000000	      0.25000000	    119.97536050	      7.54707826	     38.57619482	    108.68165125	      1.89685265	     24.38762321	      9.12707629	      0.00000000	      0.00000000	     63.24974348	      2.31851657	    -39.88637017	     72.43414508	      1.26421432	     23.33221650	     16.50137904	      0.00000000	      0.00000000	    -35.26326395	    -36.56390387	    -20.26466590	     88.83446263	      3.11268029	     32.39197574	     15.70366930	     23.15743055	      0.00000000	      0.00000000	     89.76915413	     -7.07602157	     48.90594562	     24.97776555	     19.96721934	      0.00000000	      0.00000000
      0.02500000	    -30.31844124	     34.00520698	      1.65130157	      0.09864355	      1.02114997	     -0.21073826	      0.00000000	      0.50000000	      0.00000000	      0.25000000	    119.97538190	      7.52231243	     38.56276003	    108.67486548	      1.89673422	     24.38720831	      9.11266497	      0.00000000	      0.00000000	     63.25744898	      2.31568570	    -39.88593110	     72.45463829	      1.26457200	     23.33838398	     16.51085552	      0.00000000	      0.00000000	    -35.27031184	    -36.56380777	    -20.24812093	     88.82171769	      3.11475539	     32.38938382	     15.69647779	     23.15711338	      0.00000000	      0.00000000	     89.76569524	     -7.08582018	     48.89881441	     24.99820273	     19.97021448	      0.00000000	      0.00000000
      0.03000000	    -30.33136902	     33.99514564	      1.65275168	      0.09859985	      1.02113366	     -0.21074672	      0.00000000	      0.50000000	      0.00000000	      0.25000000	    119.97536439	      7.53672021	     38.56540005	    108.67610255	      1.89675581	     24.38747906	      9.09470619	      0.00000000	      0.00000000	     63.27543809	      2.29361600	    -39.88673880	     72.47038881	      1.26484689	     23.34359607	     16.52095591	      0.00000000	      0.00000000	    -35.26080753	    -36.55661677	    -20.25582167	     88.81780799	      3.10697806	     32.38429428	     15.68747576	     23.15666068	      0.00000000	      0.00000000	     89.76713762	     -7.08732864	     48.89455700	     25.02319887	     19.97413475	      0.00000000	      0.00000000
